<svg width="18" height="18" viewBox="0 0 18 18" fill="none" xmlns="http://www.w3.org/2000/svg">
<path d="M9 18C13.9706 18 18 13.9706 18 9C18 4.02944 13.9706 0 9 0C4.02944 0 0 4.02944 0 9C0 13.9706 4.02944 18 9 18Z" fill="#FFCC4D"/>
<path d="M3.49954 8.5C3.42454 8.5 3.34804 8.483 3.27654 8.4475C3.02954 8.324 2.92954 8.0235 3.05304 7.7765C3.07904 7.724 3.71204 6.5 5.50004 6.5C7.28854 6.5 7.92104 7.7245 7.94704 7.7765C8.07054 8.0235 7.97004 8.324 7.72354 8.4475C7.47804 8.571 7.18104 8.472 7.05554 8.2295C7.03354 8.189 6.64004 7.5 5.50004 7.5C4.34154 7.5 3.95054 8.2165 3.94704 8.2235C3.85954 8.399 3.68304 8.5 3.49954 8.5ZM14.5 8.5C14.575 8.5 14.6515 8.483 14.723 8.4475C14.97 8.324 15.07 8.0235 14.9465 7.7765C14.9205 7.724 14.2875 6.5 12.4995 6.5C10.711 6.5 10.0785 7.7245 10.0525 7.7765C9.92904 8.0235 10.0295 8.324 10.276 8.4475C10.5215 8.571 10.8185 8.472 10.944 8.2295C10.966 8.189 11.3595 7.5 12.4995 7.5C13.658 7.5 14.049 8.2165 14.0525 8.2235C14.14 8.399 14.3165 8.5 14.5 8.5ZM14.7515 11.76C14.913 11.3855 14.982 11.1315 14.9845 11.1215C15.0515 10.8545 14.8895 10.584 14.622 10.5165C14.354 10.4485 14.0835 10.6105 14.0145 10.878C13.9775 11.0255 13.0405 14.5 9.00004 14.5C4.95954 14.5 4.02254 11.0255 3.98504 10.8775C3.91604 10.6105 3.64554 10.4485 3.37754 10.516C3.11054 10.5835 2.94854 10.854 3.01504 11.121C3.02604 11.165 4.16554 15.5 9.00004 15.5C9.82504 15.5 10.535 15.367 11.1575 15.1575C13.3225 14.4285 14.3445 12.7025 14.7515 11.76Z" fill="#664500"/>
<path d="M16.2035 13.3405L14.7255 11.815C14.7255 11.815 14.3855 11.596 14.089 12.099C13.699 12.76 13.0515 13.5665 12.122 14.1845C11.7315 14.444 11.0525 14.779 10.7735 14.8435C10.406 14.928 10.5795 15.3255 10.5795 15.3255C10.872 15.262 11.105 15.175 11.105 15.175L11.253 15.323L12.616 16.686C13.48 17.55 15.116 17.686 16.116 16.686C17.116 15.686 17.068 14.205 16.2035 13.3405Z" fill="#E75B70"/>
<path d="M14.9575 15.537C15.064 15.4305 15.064 15.258 14.9575 15.1515L13.143 13.337L12.745 13.711L14.5715 15.5375C14.678 15.6435 14.851 15.6435 14.9575 15.537Z" fill="#DE3146"/>
</svg>
